<svg xmlns="http://www.w3.org/2000/svg" class="icon icon-tabler icon-tabler-drone" width="250px" height="250px"
     viewBox="0 0 24 24" stroke-width="1.00" stroke="rgba(1, 1, 1, 1)" fill="none" stroke-linecap="round"
     stroke-linejoin="round">
    <circle cx="50%" cy="50%" r="50%" stroke="none" stroke-width="0" fill="rgba(255, 255, 255, 1)"/>
    <g transform="translate(2.40, 2.40) scale(0.8)">
        <path stroke="none" d="M0 0h24v24H0z" fill="none"/>
        <path d="M10 10h4v4h-4z"/>
        <line x1="10" y1="10" x2="6.5" y2="6.5"/>
        <path d="M9.96 6a3.5 3.5 0 1 0 -3.96 3.96"/>
        <path d="M14 10l3.5 -3.5"/>
        <path d="M18 9.96a3.5 3.5 0 1 0 -3.96 -3.96"/>
        <line x1="14" y1="14" x2="17.5" y2="17.5"/>
        <path d="M14.04 18a3.5 3.5 0 1 0 3.96 -3.96"/>
        <line x1="10" y1="14" x2="6.5" y2="17.5"/>
        <path d="M6 14.04a3.5 3.5 0 1 0 3.96 3.96"/>
    </g>
</svg>
